{"glyphs":{"0":{"ha":1360,"x_min":0,"x_max":1190,"o":"m 765 1190 l 425 1190 q 280 1130 340 1190 l 60 910 q 0 765 0 850 l 0 425 q 33 317 0 368 q 110 230 52 287 l 230 110 q 317 33 287 52 q 425 0 368 0 l 765 0 q 910 60 850 0 l 1130 280 q 1190 425 1190 340 l 1190 765 q 1156 873 1190 822 q 1080 960 1137 902 l 960 1080 q 873 1156 902 1137 q 765 1190 822 1190 m 850 256 q 825 195 850 220 q 765 170 801 170 l 595 170 q 422 252 505 170 q 340 425 340 335 l 340 935 q 365 995 340 971 q 425 1020 390 1020 l 595 1020 q 767 937 685 1020 q 850 765 850 855 l 850 256 z "},"1":{"ha":1360,"x_min":170,"x_max":1190,"o":"m 765 1190 l 595 1190 q 423 1107 506 1190 q 340 935 340 1025 l 510 765 l 510 256 q 385 169 510 169 q 340 170 369 169 q 295 171 310 171 q 170 86 170 171 q 195 25 170 50 q 256 0 220 0 l 1105 0 q 1165 25 1141 0 q 1190 86 1190 50 q 1064 171 1190 171 q 1020 170 1049 171 q 975 169 990 169 q 850 256 850 169 l 850 1105 q 825 1165 850 1140 q 765 1190 800 1190 z "},"2":{"ha":1360,"x_min":0,"x_max":1190,"o":"m 256 1190 q 83 1107 166 1190 q 0 935 0 1025 q 25 875 0 900 q 86 850 50 850 l 256 850 q 327 893 308 850 q 353 976 340 935 q 425 1020 372 1020 l 765 1020 q 825 995 800 1020 q 850 935 850 970 q 790 790 850 850 l 740 740 q 551 678 678 678 q 510 680 565 678 q 469 680 510 680 q 280 620 340 680 l 60 400 q 0 256 0 340 l 0 86 q 25 25 0 50 q 86 0 50 0 l 1105 0 q 1165 25 1141 0 q 1190 86 1190 50 q 1165 145 1190 120 q 1105 170 1140 170 l 595 170 q 515 230 530 170 q 510 340 510 249 q 535 401 510 376 q 595 425 560 425 q 652 424 615 425 q 708 423 689 423 q 910 486 847 423 l 1130 704 q 1184 813 1173 747 q 1190 935 1190 842 q 1107 1107 1190 1025 q 935 1190 1025 1190 l 256 1190 z "},"3":{"ha":1360,"x_min":0,"x_max":1190,"o":"m 170 1105 q 195 1045 170 1069 q 256 1020 220 1020 l 595 1020 q 639 994 639 1020 q 620 960 639 979 l 400 740 q 340 595 340 680 q 365 535 340 560 q 425 510 390 510 l 765 510 q 825 485 801 510 q 850 424 850 460 l 850 256 q 825 195 850 220 q 765 170 801 170 l 425 170 q 353 213 372 170 q 327 296 340 256 q 256 340 308 340 l 86 340 q 25 316 50 340 q 0 256 0 291 q 82 82 0 165 q 256 0 165 0 l 935 0 q 1107 83 1025 0 q 1190 256 1190 166 l 1190 424 q 1107 597 1190 514 q 935 680 1025 680 q 862 678 827 680 q 806 705 806 681 q 906 825 806 731 l 1090 1000 q 1190 1147 1190 1103 q 1156 1181 1190 1169 q 1105 1190 1132 1190 l 256 1190 q 195 1165 220 1190 q 170 1105 170 1141 z "},"4":{"ha":1360,"x_min":0,"x_max":1190,"o":"m 935 1190 l 595 1190 q 450 1130 510 1190 l 60 740 q 0 595 0 680 l 0 425 q 25 365 0 390 q 86 340 50 340 l 595 340 q 681 215 681 340 q 680 170 681 199 q 678 125 678 141 q 765 0 678 0 l 935 0 q 995 25 971 0 q 1020 86 1020 50 l 1020 256 q 1063 327 1020 308 q 1146 353 1105 340 q 1190 425 1190 372 l 1020 595 l 1020 1105 q 995 1165 1020 1140 q 935 1190 970 1190 m 680 595 q 655 535 680 560 q 595 510 631 510 l 425 510 q 365 535 390 510 q 340 595 340 560 q 400 740 340 680 l 620 960 q 654 979 639 979 q 680 935 680 979 l 680 595 z "},"5":{"ha":1360,"x_min":0,"x_max":1190,"o":"m 0 1105 q 25 1165 0 1141 q 86 1190 50 1190 l 935 1190 q 995 1165 970 1190 q 1020 1105 1020 1140 q 995 1045 1020 1069 q 935 1020 971 1020 l 425 1020 q 365 995 390 1020 q 340 935 340 971 q 365 875 340 900 q 425 850 390 850 l 935 850 q 1043 816 992 850 q 1190 595 1190 722 l 1190 256 q 1107 83 1190 166 q 935 0 1025 0 l 256 0 q 82 82 165 0 q 0 256 0 165 q 25 316 0 291 q 86 340 50 340 l 256 340 q 327 296 308 340 q 353 213 340 256 q 425 170 372 170 l 765 170 q 825 195 801 170 q 850 256 850 220 l 850 595 q 825 655 850 630 q 765 680 800 680 l 86 680 q 25 705 50 680 q 0 765 0 730 l 0 1105 z "},"6":{"ha":1360,"x_min":0,"x_max":1190,"o":"m 340 765 q 487 986 340 889 q 595 1020 537 1020 l 935 1020 q 995 1045 971 1020 q 1020 1105 1020 1069 q 995 1165 1020 1140 q 935 1190 970 1190 l 425 1190 q 317 1156 368 1190 q 230 1080 287 1137 l 110 960 q 33 873 52 902 q 0 765 0 822 l 0 256 q 82 82 0 165 q 256 0 165 0 l 935 0 q 1107 83 1025 0 q 1190 256 1190 166 l 1190 424 q 1043 647 1190 549 q 935 680 993 680 l 425 680 q 365 705 390 680 q 340 765 340 730 m 850 256 q 825 195 850 220 q 765 170 801 170 l 425 170 q 365 195 390 170 q 340 256 340 220 l 340 424 q 365 485 340 460 q 425 510 390 510 l 765 510 q 825 485 801 510 q 850 424 850 460 l 850 256 z "},"7":{"ha":1360,"x_min":0,"x_max":1190,"o":"m 0 935 q 25 875 0 900 q 86 850 50 850 l 256 850 q 327 893 308 850 q 353 976 340 935 q 425 1020 372 1020 l 765 1020 q 816 1011 792 1020 q 850 977 850 999 q 790 874 850 934 l 400 486 q 340 340 340 425 l 340 86 q 365 25 340 50 q 425 0 390 0 l 595 0 q 682 135 682 0 q 680 206 682 160 q 677 277 677 253 q 740 486 677 423 l 1130 874 q 1184 983 1173 917 q 1190 1105 1190 1012 q 1165 1165 1190 1140 q 1105 1190 1140 1190 l 86 1190 q 25 1165 50 1190 q 0 1105 0 1141 l 0 935 z "},"8":{"ha":1360,"x_min":0,"x_max":1190,"o":"m 986 639 q 1003 671 986 607 q 1020 765 1020 736 l 1020 935 q 937 1107 1020 1025 q 765 1190 855 1190 l 256 1190 q 83 1107 166 1190 q 0 935 0 1025 l 0 765 q 30 659 0 719 q 60 594 60 599 q 30 530 60 590 q 0 424 0 470 l 0 256 q 82 82 0 165 q 256 0 165 0 l 935 0 q 1107 83 1025 0 q 1190 256 1190 166 l 1190 424 q 1137 530 1190 487 q 1039 586 1119 546 q 986 639 986 613 m 340 935 q 365 995 340 971 q 425 1020 390 1020 l 765 1020 q 825 995 800 1020 q 850 935 850 970 l 850 765 q 825 705 850 730 q 765 680 801 680 l 595 680 q 422 762 505 680 q 340 935 340 845 m 850 256 q 825 195 850 220 q 765 170 801 170 l 256 170 q 195 195 220 170 q 170 256 170 220 l 170 424 q 195 485 170 460 q 256 510 220 510 l 425 510 q 585 471 507 510 l 774 378 q 827 326 805 363 q 850 256 850 290 z "},"9":{"ha":1360,"x_min":0,"x_max":1190,"o":"m 256 1190 q 83 1107 166 1190 q 0 935 0 1025 l 0 765 q 147 543 0 640 q 256 510 197 510 l 765 510 q 825 485 800 510 q 850 425 850 460 q 703 203 850 300 q 595 170 653 170 l 256 170 q 195 146 220 170 q 170 86 170 121 q 195 25 170 50 q 256 0 220 0 l 765 0 q 873 33 822 0 q 960 110 902 52 l 1080 230 q 1156 317 1137 287 q 1190 425 1190 368 l 1190 935 q 1107 1107 1190 1025 q 935 1190 1025 1190 l 256 1190 m 850 765 q 825 705 850 730 q 765 680 801 680 l 425 680 q 365 705 390 680 q 340 765 340 730 l 340 935 q 365 995 340 971 q 425 1020 390 1020 l 765 1020 q 825 995 800 1020 q 850 935 850 970 l 850 765 z "}," ":{"ha":1360,"x_min":0,"x_max":0,"o":""},"!":{"ha":1360,"x_min":340,"x_max":680,"o":"m 340 1105 q 365 1165 340 1141 q 425 1190 390 1190 l 595 1190 q 655 1165 630 1190 q 680 1105 680 1140 l 680 595 q 655 535 680 560 q 595 510 631 510 l 425 510 q 365 535 390 510 q 340 595 340 560 l 340 1105 m 340 254 q 365 315 340 290 q 425 340 390 340 l 595 340 q 655 315 631 340 q 680 254 680 290 l 680 86 q 655 25 680 50 q 595 0 631 0 l 425 0 q 365 25 390 0 q 340 86 340 50 l 340 254 z "},"\"":{"ha":1360,"x_min":170,"x_max":1020,"o":"m 170 935 l 340 765 q 296 693 340 712 q 213 667 256 680 q 170 595 170 648 q 195 535 170 560 q 256 510 220 510 q 427 593 345 510 q 510 765 510 676 l 510 1105 q 485 1165 510 1140 q 425 1190 460 1190 l 256 1190 q 195 1165 220 1190 q 170 1105 170 1141 l 170 935 m 765 1190 q 705 1165 730 1190 q 680 1105 680 1141 l 680 935 l 850 765 q 806 693 850 712 q 723 667 765 680 q 680 595 680 648 q 705 535 680 560 q 765 510 730 510 q 937 593 855 510 q 1020 765 1020 676 l 1020 1105 q 995 1165 1020 1140 q 935 1190 970 1190 l 765 1190 z "},"#":{"ha":1360,"x_min":170,"x_max":1020,"o":"m 1020 765 q 976 837 1020 818 q 893 862 935 850 q 850 935 850 882 q 825 995 850 970 q 765 1020 800 1020 q 693 976 712 1020 q 667 893 680 935 q 595 850 648 850 q 523 893 542 850 q 497 976 510 935 q 425 1020 478 1020 q 365 995 390 1020 q 340 935 340 971 l 170 765 q 213 693 170 712 q 296 667 256 680 q 340 595 340 648 q 296 523 340 542 q 213 497 256 510 q 170 424 170 478 q 195 364 170 388 q 256 340 220 340 q 327 296 308 340 q 353 213 340 256 q 425 170 372 170 q 497 213 478 170 q 523 296 510 254 q 595 340 542 340 q 667 296 648 340 q 693 213 680 256 q 765 170 712 170 q 837 213 818 170 q 862 296 850 254 q 935 340 882 340 q 995 365 970 340 q 1020 424 1020 390 q 976 497 1020 478 q 893 523 935 510 q 850 595 850 542 q 893 667 850 648 q 976 693 935 680 q 1020 765 1020 712 m 680 595 q 655 535 680 560 q 595 510 631 510 q 535 535 560 510 q 510 595 510 560 q 535 655 510 631 q 595 680 560 680 q 655 655 630 680 q 680 595 680 630 z "},"$":{"ha":1360,"x_min":170,"x_max":1020,"o":"m 1020 935 q 995 995 1020 970 q 935 1020 970 1020 l 765 1020 q 693 1063 712 1020 q 667 1146 680 1105 q 595 1190 648 1190 l 425 1020 q 253 937 336 1020 q 170 765 170 855 q 252 592 170 675 q 425 510 335 510 q 486 485 461 510 q 510 424 510 460 q 385 339 510 339 q 340 340 369 339 q 295 341 310 341 q 170 256 170 341 q 195 195 170 220 q 256 170 220 170 l 425 170 q 497 126 478 170 q 523 43 510 86 q 595 0 542 0 q 667 43 648 0 q 693 126 680 86 q 765 170 712 170 q 937 252 855 170 q 1020 424 1020 335 q 937 597 1020 514 q 765 680 855 680 q 705 705 730 680 q 680 765 680 730 q 805 851 680 851 q 850 850 820 851 q 894 848 879 848 q 1020 935 1020 848 m 510 765 q 486 705 510 730 q 425 680 461 680 q 365 705 390 680 q 340 765 340 730 q 365 825 340 801 q 425 850 390 850 q 485 825 460 850 q 510 765 510 800 m 765 510 q 825 485 801 510 q 850 424 850 460 q 825 365 850 390 q 765 340 800 340 q 705 364 730 340 q 680 424 680 388 q 705 485 680 460 q 765 510 730 510 z "},"%":{"ha":1360,"x_min":0,"x_max":1190,"o":"m 256 1190 q 83 1107 166 1190 q 0 935 0 1025 q 82 762 0 845 q 256 680 165 680 q 427 763 345 680 q 510 935 510 846 q 427 1107 510 1025 q 256 1190 345 1190 m 340 935 q 316 875 340 900 q 256 850 291 850 q 195 875 220 850 q 170 935 170 900 q 195 995 170 971 q 256 1020 220 1020 q 315 995 290 1020 q 340 935 340 970 m 935 510 q 763 427 846 510 q 680 256 680 345 q 762 82 680 165 q 935 0 845 0 q 1107 83 1025 0 q 1190 256 1190 166 q 1107 427 1190 345 q 935 510 1025 510 m 1020 256 q 995 195 1020 220 q 935 170 971 170 q 875 195 900 170 q 850 256 850 220 q 875 316 850 291 q 935 340 900 340 q 995 315 970 340 q 1020 256 1020 290 m 1105 1190 q 1165 1165 1140 1190 q 1190 1105 1190 1140 q 1130 960 1190 1020 l 230 60 q 86 0 170 0 q 25 25 50 0 q 0 86 0 50 q 60 230 0 170 l 960 1130 q 1105 1190 1020 1190 z "},"&":{"ha":1360,"x_min":0,"x_max":1190,"o":"m 1190 425 q 1165 485 1190 460 q 1105 510 1140 510 l 765 510 q 721 535 721 510 q 754 584 721 549 q 816 657 777 607 q 850 765 850 708 l 850 935 q 767 1107 850 1025 q 595 1190 685 1190 l 256 1190 q 83 1107 166 1190 q 0 935 0 1025 l 0 765 q 33 661 0 716 q 66 602 66 606 q 33 535 66 595 q 0 424 0 474 l 0 213 q 86 61 0 126 q 256 0 166 0 l 595 0 q 696 23 636 0 q 767 46 756 46 q 836 23 777 46 q 935 0 896 0 l 1105 0 q 1156 9 1132 0 q 1190 42 1190 20 q 1144 128 1190 73 q 1098 212 1098 183 q 1144 300 1098 230 q 1190 425 1190 369 m 340 935 q 365 995 340 971 q 425 1020 390 1020 l 595 1020 q 655 995 630 1020 q 680 935 680 970 l 680 765 q 655 705 680 730 q 595 680 631 680 q 422 762 505 680 q 340 935 340 845 m 256 128 q 195 153 220 128 q 170 213 170 178 l 170 424 q 192 510 170 510 q 279 456 211 510 l 624 181 q 647 148 647 164 q 606 128 647 128 l 256 128 z "},"'":{"ha":1360,"x_min":170,"x_max":510,"o":"m 256 1190 q 195 1165 220 1190 q 170 1105 170 1141 l 170 935 l 340 765 q 296 693 340 712 q 213 667 256 680 q 170 595 170 648 q 195 535 170 560 q 256 510 220 510 q 427 593 345 510 q 510 765 510 676 l 510 1105 q 485 1165 510 1140 q 425 1190 460 1190 l 256 1190 z "},"(":{"ha":1360,"x_min":170,"x_max":850,"o":"m 595 1190 l 765 1190 q 825 1165 800 1190 q 850 1105 850 1140 q 825 1045 850 1069 q 765 1020 801 1020 q 593 937 676 1020 q 510 765 510 855 l 510 425 q 592 252 510 335 q 765 170 675 170 q 825 145 800 170 q 850 86 850 120 q 825 25 850 50 q 765 0 801 0 l 595 0 q 450 60 510 0 l 230 280 q 170 425 170 340 l 170 765 q 230 910 170 850 l 450 1130 q 595 1190 510 1190 z "},")":{"ha":1360,"x_min":340,"x_max":1020,"o":"m 340 1105 q 365 1165 340 1141 q 425 1190 390 1190 l 595 1190 q 740 1130 680 1190 l 960 910 q 1020 765 1020 850 l 1020 425 q 960 280 1020 340 l 740 60 q 595 0 680 0 l 425 0 q 365 25 390 0 q 340 86 340 50 q 365 146 340 121 q 425 170 390 170 q 597 253 515 170 q 680 425 680 336 l 680 765 q 597 937 680 855 q 425 1020 515 1020 q 365 1045 390 1020 q 340 1105 340 1069 z "},"*":{"ha":1360,"x_min":170,"x_max":1020,"o":"m 1020 765 q 960 845 1020 829 q 850 850 940 850 q 755 823 816 850 q 704 797 694 797 q 681 859 681 797 l 681 888 q 595 1020 681 1020 q 509 888 509 1020 l 509 859 q 487 797 509 797 q 468 808 479 797 q 365 847 431 839 q 256 850 345 850 q 195 825 220 850 q 170 765 170 801 l 340 595 q 296 523 340 542 l 215 497 q 170 425 170 478 q 230 345 170 360 q 340 340 249 340 q 434 366 373 340 q 487 392 496 392 q 509 331 509 392 l 509 302 q 595 170 509 170 q 681 302 681 170 l 681 331 q 704 392 681 392 q 722 382 710 392 q 824 342 759 350 q 935 340 845 340 q 995 365 971 340 q 1020 425 1020 390 q 976 497 1020 478 q 893 523 935 510 q 850 595 850 542 q 893 667 850 648 q 976 693 935 680 q 1020 765 1020 712 z "},"+":{"ha":1360,"x_min":170,"x_max":1020,"o":"m 595 1020 q 681 894 681 1020 q 680 850 681 879 q 678 805 678 820 q 765 680 678 680 l 935 680 q 995 655 970 680 q 1020 595 1020 630 q 995 535 1020 560 q 935 510 971 510 l 765 510 q 678 385 678 510 q 680 340 678 369 q 681 295 681 310 q 595 170 681 170 q 535 195 560 170 q 510 256 510 220 l 510 424 q 385 511 510 511 q 340 510 369 511 q 295 509 310 509 q 170 595 170 509 q 195 655 170 631 q 256 680 220 680 l 425 680 q 511 805 511 680 q 510 850 511 820 q 509 894 509 879 q 595 1020 509 1020 z "},",":{"ha":1360,"x_min":170,"x_max":510,"o":"m 256 680 q 195 655 220 680 q 170 595 170 631 l 170 425 q 213 353 170 372 q 296 327 256 340 q 340 256 340 308 q 296 183 340 202 q 213 157 256 170 q 170 86 170 138 q 195 25 170 50 q 256 0 220 0 q 427 83 345 0 q 510 256 510 166 l 510 595 q 485 655 510 630 q 425 680 460 680 l 256 680 z "},"-":{"ha":1360,"x_min":170,"x_max":1020,"o":"m 170 595 q 195 655 170 631 q 256 680 220 680 l 935 680 q 995 655 970 680 q 1020 595 1020 630 q 995 535 1020 560 q 935 510 971 510 l 256 510 q 195 535 220 510 q 170 595 170 560 z "},".":{"ha":1360,"x_min":170,"x_max":510,"o":"m 170 256 q 195 316 170 291 q 256 340 220 340 l 425 340 q 485 315 460 340 q 510 256 510 290 l 510 86 q 486 25 510 50 q 425 0 461 0 l 256 0 q 195 25 220 0 q 170 86 170 50 l 170 256 z "},"/":{"ha":1360,"x_min":0,"x_max":1190,"o":"m 1105 1190 q 1165 1165 1140 1190 q 1190 1105 1190 1140 q 1130 960 1190 1020 l 230 60 q 86 0 170 0 q 25 25 50 0 q 0 86 0 50 q 60 230 0 170 l 960 1130 q 1105 1190 1020 1190 z "},":":{"ha":1360,"x_min":170,"x_max":510,"o":"m 170 935 q 195 995 170 971 q 256 1020 220 1020 l 425 1020 q 485 995 460 1020 q 510 935 510 970 l 510 765 q 486 705 510 730 q 425 680 461 680 l 256 680 q 195 705 220 680 q 170 765 170 730 l 170 935 m 170 256 q 195 316 170 291 q 256 340 220 340 l 425 340 q 485 315 460 340 q 510 256 510 290 l 510 86 q 486 25 510 50 q 425 0 461 0 l 256 0 q 195 25 220 0 q 170 86 170 50 l 170 256 z "},";":{"ha":1360,"x_min":170,"x_max":510,"o":"m 170 1105 q 195 1165 170 1141 q 256 1190 220 1190 l 425 1190 q 485 1165 460 1190 q 510 1105 510 1140 l 510 935 q 486 875 510 900 q 425 850 461 850 l 256 850 q 195 875 220 850 q 170 935 170 900 l 170 1105 m 256 680 q 195 655 220 680 q 170 595 170 631 l 170 425 q 213 353 170 372 q 296 327 256 340 q 340 256 340 308 q 296 183 340 202 q 213 157 256 170 q 170 86 170 138 q 195 25 170 50 q 256 0 220 0 q 427 83 345 0 q 510 256 510 166 l 510 595 q 485 655 510 630 q 425 680 460 680 l 256 680 z "},"<":{"ha":1360,"x_min":170,"x_max":809,"o":"m 595 1020 l 765 1020 q 809 994 809 1020 q 790 960 809 979 l 570 740 q 510 595 510 680 q 570 450 510 510 l 790 230 q 809 195 809 211 q 765 170 809 170 l 595 170 q 450 230 510 170 l 230 450 q 170 595 170 510 q 230 740 170 680 l 450 960 q 595 1020 510 1020 z "},"=":{"ha":1360,"x_min":170,"x_max":1020,"o":"m 170 765 q 195 825 170 801 q 256 850 220 850 l 935 850 q 995 825 970 850 q 1020 765 1020 800 q 995 705 1020 730 q 935 680 971 680 l 256 680 q 195 705 220 680 q 170 765 170 730 m 170 425 q 195 486 170 461 q 256 510 220 510 l 935 510 q 995 485 970 510 q 1020 425 1020 460 q 995 365 1020 390 q 935 340 971 340 l 256 340 q 195 365 220 340 q 170 425 170 390 z "},">":{"ha":1360,"x_min":381,"x_max":1020,"o":"m 381 994 q 425 1020 381 1020 l 595 1020 q 740 960 680 1020 l 960 740 q 1020 595 1020 680 q 960 450 1020 510 l 740 230 q 595 170 680 170 l 425 170 q 381 195 381 170 q 400 230 381 211 l 620 450 q 680 595 680 510 q 620 740 680 680 l 400 960 q 381 994 381 979 z "},"?":{"ha":1360,"x_min":0,"x_max":1190,"o":"m 86 850 q 25 875 50 850 q 0 935 0 900 q 83 1107 0 1025 q 256 1190 166 1190 l 935 1190 q 1107 1107 1025 1190 q 1190 935 1190 1025 q 1130 790 1190 850 q 1027 704 1066 724 q 898 677 976 677 q 832 678 877 677 q 765 680 787 680 q 693 636 712 680 q 667 553 680 595 q 595 510 648 510 l 425 510 q 365 535 390 510 q 340 595 340 560 q 400 740 340 680 l 450 790 q 650 852 512 852 q 708 851 670 852 q 765 850 746 850 q 825 875 801 850 q 850 935 850 900 q 825 995 850 970 q 765 1020 800 1020 l 425 1020 q 353 976 372 1020 q 327 893 340 935 q 256 850 308 850 l 86 850 m 340 254 q 365 315 340 290 q 425 340 390 340 l 595 340 q 655 315 631 340 q 680 254 680 290 l 680 86 q 655 25 680 50 q 595 0 631 0 l 425 0 q 365 25 390 0 q 340 86 340 50 l 340 254 z "},"@":{"ha":1360,"x_min":0,"x_max":1190,"o":"m 935 1190 l 256 1190 q 83 1107 166 1190 q 0 935 0 1025 l 0 256 q 82 82 0 165 q 256 0 165 0 l 935 0 q 995 25 971 0 q 1020 86 1020 50 q 995 145 1020 120 q 935 170 970 170 l 425 170 q 365 195 390 170 q 340 256 340 220 q 365 316 340 291 q 425 340 390 340 l 935 340 q 1043 373 992 340 q 1190 595 1190 468 l 1190 935 q 1107 1107 1190 1025 q 935 1190 1025 1190 m 510 595 q 486 535 510 560 q 425 510 461 510 q 365 535 390 510 q 340 595 340 560 q 365 655 340 631 q 425 680 390 680 q 485 655 460 680 q 510 595 510 630 m 850 595 q 825 535 850 560 q 765 510 801 510 q 705 535 730 510 q 680 595 680 560 l 680 765 q 555 851 680 851 q 510 850 539 851 q 465 848 480 848 q 340 935 340 848 q 365 995 340 971 q 425 1020 390 1020 l 765 1020 q 825 995 800 1020 q 850 935 850 970 l 850 595 z "},"A":{"ha":1360,"x_min":0,"x_max":1190,"o":"m 765 1190 l 425 1190 q 280 1130 340 1190 l 60 910 q 0 765 0 850 l 0 86 q 25 25 0 50 q 86 0 50 0 l 256 0 q 341 125 341 0 q 340 170 341 141 q 339 215 339 199 q 425 340 339 340 l 765 340 q 851 215 851 340 q 850 170 851 199 q 848 125 848 141 q 935 0 848 0 l 1105 0 q 1165 25 1141 0 q 1190 86 1190 50 l 1190 765 q 1130 910 1190 850 l 910 1130 q 765 1190 850 1190 m 850 595 q 825 535 850 560 q 765 510 801 510 l 425 510 q 365 535 390 510 q 340 595 340 560 l 340 765 q 423 937 340 855 q 595 1020 506 1020 q 767 937 685 1020 q 850 765 850 855 l 850 595 z "},"B":{"ha":1360,"x_min":0,"x_max":1190,"o":"m 1190 935 q 1107 1107 1190 1025 q 935 1190 1025 1190 l 86 1190 q 25 1165 50 1190 q 0 1105 0 1141 l 0 86 q 25 25 0 50 q 86 0 50 0 l 935 0 q 1107 83 1025 0 q 1190 256 1190 166 l 1190 424 q 1160 530 1190 470 q 1130 594 1130 590 q 1160 659 1130 599 q 1190 765 1190 719 l 1190 935 m 850 256 q 825 195 850 220 q 765 170 801 170 l 425 170 q 365 195 390 170 q 340 256 340 220 l 340 424 q 365 485 340 460 q 425 510 390 510 l 765 510 q 825 485 801 510 q 850 424 850 460 l 850 256 m 850 765 q 825 705 850 730 q 765 680 801 680 l 425 680 q 365 705 390 680 q 340 765 340 730 l 340 935 q 365 995 340 971 q 425 1020 390 1020 l 765 1020 q 825 995 800 1020 q 850 935 850 970 l 850 765 z "},"C":{"ha":1360,"x_min":0,"x_max":1190,"o":"m 425 1190 l 935 1190 q 1107 1107 1025 1190 q 1190 935 1190 1025 q 1165 875 1190 900 q 1105 850 1141 850 l 935 850 q 862 893 882 850 q 837 976 850 935 q 765 1020 818 1020 l 595 1020 q 423 937 506 1020 q 340 765 340 855 l 340 424 q 423 252 340 335 q 595 170 506 170 l 765 170 q 837 213 818 170 q 862 296 850 254 q 935 340 882 340 l 1105 340 q 1165 315 1140 340 q 1190 256 1190 290 q 1107 83 1190 166 q 935 0 1025 0 l 425 0 q 280 60 340 0 l 60 280 q 0 424 0 340 l 0 765 q 60 910 0 850 l 280 1130 q 425 1190 340 1190 z "},"D":{"ha":1360,"x_min":0,"x_max":1190,"o":"m 765 1190 l 86 1190 q 25 1165 50 1190 q 0 1104 0 1140 l 0 86 q 25 25 0 50 q 86 0 50 0 l 765 0 q 910 60 850 0 l 1130 280 q 1190 424 1190 340 l 1190 764 q 1130 910 1190 850 l 910 1130 q 765 1190 850 1190 m 850 424 q 767 252 850 335 q 595 170 685 170 l 425 170 q 365 195 390 170 q 340 256 340 220 l 340 934 q 365 995 340 970 q 425 1020 390 1020 l 595 1020 q 767 937 685 1020 q 850 764 850 854 l 850 424 z "},"E":{"ha":1360,"x_min":0,"x_max":1190,"o":"m 0 1104 q 25 1165 0 1140 q 86 1190 50 1190 l 1105 1190 q 1165 1165 1141 1190 q 1190 1104 1190 1140 q 1165 1045 1190 1069 q 1105 1020 1140 1020 l 425 1020 q 365 995 390 1020 q 340 934 340 970 l 340 765 q 365 705 340 730 q 425 680 390 680 l 935 680 q 995 655 970 680 q 1020 595 1020 630 q 995 535 1020 560 q 935 510 971 510 l 425 510 q 365 485 390 510 q 340 424 340 460 l 340 256 q 365 195 340 220 q 425 170 390 170 l 1105 170 q 1165 145 1140 170 q 1190 86 1190 120 q 1165 25 1190 50 q 1105 0 1141 0 l 86 0 q 25 25 50 0 q 0 86 0 50 l 0 1104 z "},"F":{"ha":1360,"x_min":0,"x_max":1190,"o":"m 0 1104 q 25 1165 0 1140 q 86 1190 50 1190 l 1105 1190 q 1165 1165 1141 1190 q 1190 1104 1190 1140 q 1165 1045 1190 1069 q 1105 1020 1140 1020 l 425 1020 q 365 995 390 1020 q 340 934 340 970 l 340 765 q 365 705 340 730 q 425 680 390 680 l 935 680 q 995 655 970 680 q 1020 595 1020 630 q 995 535 1020 560 q 935 510 971 510 l 425 510 q 365 485 390 510 q 340 424 340 460 l 340 86 q 316 25 340 50 q 256 0 291 0 l 86 0 q 25 25 50 0 q 0 86 0 50 l 0 1104 z "},"G":{"ha":1360,"x_min":0,"x_max":1190,"o":"m 0 764 l 0 424 q 60 280 0 340 l 280 60 q 425 0 340 0 l 1105 0 q 1165 25 1141 0 q 1190 86 1190 50 l 1190 595 q 1165 655 1190 630 q 1105 680 1140 680 l 765 680 q 705 655 730 680 q 680 595 680 631 q 723 523 680 542 q 806 497 765 510 q 850 424 850 478 l 850 256 q 825 195 850 220 q 765 170 801 170 l 595 170 q 423 252 506 170 q 340 424 340 335 l 340 764 q 487 986 340 892 q 595 1020 538 1020 l 1105 1020 q 1165 1045 1140 1020 q 1190 1104 1190 1069 q 1165 1165 1190 1140 q 1105 1190 1141 1190 l 425 1190 q 280 1130 340 1190 l 60 910 q 0 764 0 850 z "},"H":{"ha":1360,"x_min":0,"x_max":1190,"o":"m 935 1190 q 875 1165 900 1190 q 850 1104 850 1140 l 850 765 q 825 705 850 730 q 765 680 801 680 l 425 680 q 365 705 390 680 q 340 765 340 730 l 340 1104 q 316 1165 340 1140 q 256 1190 291 1190 l 86 1190 q 25 1165 50 1190 q 0 1104 0 1140 l 0 86 q 25 25 0 50 q 86 0 50 0 l 256 0 q 316 25 291 0 q 340 86 340 50 l 340 424 q 365 485 340 460 q 425 510 390 510 l 765 510 q 825 485 801 510 q 850 424 850 460 l 850 86 q 875 25 850 50 q 935 0 900 0 l 1105 0 q 1165 25 1141 0 q 1190 86 1190 50 l 1190 1104 q 1165 1165 1190 1140 q 1105 1190 1141 1190 l 935 1190 z "},"I":{"ha":1360,"x_min":170,"x_max":1190,"o":"m 170 1104 q 195 1165 170 1140 q 256 1190 220 1190 l 1105 1190 q 1165 1165 1141 1190 q 1190 1104 1190 1140 q 1064 1018 1190 1018 q 1020 1020 1049 1018 q 975 1021 990 1021 q 850 934 850 1021 l 850 256 q 975 169 850 169 q 1020 170 990 169 q 1064 171 1049 171 q 1190 86 1190 171 q 1165 25 1190 50 q 1105 0 1141 0 l 256 0 q 195 25 220 0 q 170 86 170 50 q 295 171 170 171 q 340 170 310 171 q 385 169 369 169 q 510 256 510 169 l 510 934 q 385 1021 510 1021 q 340 1020 369 1021 q 295 1018 310 1018 q 170 1104 170 1018 z "},"J":{"ha":1360,"x_min":0,"x_max":1190,"o":"m 935 1190 l 1105 1190 q 1165 1165 1141 1190 q 1190 1104 1190 1140 l 1190 256 q 1107 83 1190 166 q 935 0 1025 0 l 256 0 q 82 82 165 0 q 0 256 0 165 l 0 424 q 25 485 0 460 q 86 510 50 510 l 256 510 q 341 385 341 510 q 340 340 341 369 q 339 295 339 310 q 425 170 339 170 l 765 170 q 825 195 801 170 q 850 256 850 220 l 850 1104 q 875 1165 850 1140 q 935 1190 900 1190 z "},"K":{"ha":1360,"x_min":0,"x_max":1190,"o":"m 1190 1104 q 1165 1165 1190 1140 q 1105 1190 1141 1190 l 935 1190 q 790 1130 850 1190 l 400 740 q 365 721 381 721 q 340 765 340 721 l 340 1104 q 316 1165 340 1140 q 256 1190 291 1190 l 86 1190 q 25 1165 50 1190 q 0 1104 0 1140 l 0 86 q 25 25 0 50 q 86 0 50 0 l 256 0 q 341 125 341 0 q 340 170 341 141 q 339 215 339 199 q 425 340 339 340 l 935 0 l 1105 0 q 1165 25 1141 0 q 1190 86 1190 50 q 1130 230 1190 170 l 825 534 q 800 594 800 560 q 825 655 800 630 l 1130 960 q 1190 1104 1190 1020 z "},"L":{"ha":1360,"x_min":0,"x_max":1190,"o":"m 0 1104 q 25 1165 0 1140 q 86 1190 50 1190 l 256 1190 q 316 1165 291 1190 q 340 1104 340 1140 l 340 256 q 365 195 340 220 q 425 170 390 170 l 1105 170 q 1165 145 1140 170 q 1190 86 1190 120 q 1165 25 1190 50 q 1105 0 1141 0 l 86 0 q 25 25 50 0 q 0 86 0 50 l 0 1104 z "},"M":{"ha":1360,"x_min":0,"x_max":1190,"o":"m 935 1190 q 795 1132 862 1190 q 690 1027 781 1121 q 595 970 634 970 q 500 1027 556 970 q 395 1132 409 1121 q 256 1190 327 1190 l 86 1190 q 25 1165 50 1190 q 0 1104 0 1140 l 0 86 q 25 25 0 50 q 86 0 50 0 l 256 0 q 316 25 291 0 q 340 86 340 50 l 340 595 q 365 639 340 639 q 413 606 378 639 q 487 543 461 560 q 595 510 538 510 q 703 543 650 510 q 777 606 730 561 q 824 639 811 639 q 850 595 850 639 l 850 86 q 875 25 850 50 q 935 0 900 0 l 1105 0 q 1165 25 1141 0 q 1190 86 1190 50 l 1190 1104 q 1165 1165 1190 1140 q 1105 1190 1141 1190 l 935 1190 z "},"N":{"ha":1360,"x_min":0,"x_max":1190,"o":"m 824 636 q 790 655 809 636 l 316 1130 q 207 1184 272 1173 q 86 1190 178 1190 q 25 1165 50 1190 q 0 1105 0 1141 l 0 86 q 25 25 0 50 q 86 0 50 0 l 256 0 q 316 25 291 0 q 340 86 340 50 l 340 510 q 365 553 340 553 q 400 534 381 553 l 874 60 q 983 5 917 17 q 1105 0 1012 0 q 1165 25 1141 0 q 1190 86 1190 50 l 1190 1105 q 1165 1165 1190 1140 q 1105 1190 1140 1190 l 935 1190 q 875 1165 900 1190 q 850 1105 850 1141 l 850 680 q 824 636 850 636 z "},"O":{"ha":1360,"x_min":0,"x_max":1190,"o":"m 256 1190 q 83 1107 166 1190 q 0 935 0 1025 l 0 256 q 82 82 0 165 q 256 0 165 0 l 935 0 q 1107 83 1025 0 q 1190 256 1190 166 l 1190 935 q 1107 1107 1190 1025 q 935 1190 1025 1190 l 256 1190 m 850 256 q 825 195 850 220 q 765 170 801 170 l 425 170 q 365 195 390 170 q 340 256 340 220 l 340 935 q 365 995 340 971 q 425 1020 390 1020 l 765 1020 q 825 995 800 1020 q 850 935 850 970 l 850 256 z "},"P":{"ha":1360,"x_min":0,"x_max":1190,"o":"m 935 1190 l 86 1190 q 25 1165 50 1190 q 0 1105 0 1141 l 0 86 q 25 25 0 50 q 86 0 50 0 l 256 0 q 341 125 341 0 q 340 170 341 141 q 339 215 339 199 q 425 340 339 340 l 935 340 q 1107 423 1025 340 q 1190 595 1190 506 l 1190 935 q 1107 1107 1190 1025 q 935 1190 1025 1190 m 850 595 q 825 535 850 560 q 765 510 801 510 l 425 510 q 365 535 390 510 q 340 595 340 560 l 340 935 q 365 995 340 971 q 425 1020 390 1020 l 765 1020 q 825 995 800 1020 q 850 935 850 970 l 850 595 z "},"Q":{"ha":1360,"x_min":0,"x_max":1190,"o":"m 1190 935 q 1107 1107 1190 1025 q 935 1190 1025 1190 l 256 1190 q 83 1107 166 1190 q 0 935 0 1025 l 0 256 q 82 82 0 165 q 256 0 165 0 l 765 0 q 870 30 811 0 q 935 60 929 60 q 999 30 940 60 q 1105 0 1058 0 q 1165 25 1141 0 q 1190 86 1190 50 q 1160 190 1190 132 q 1130 256 1130 249 q 1160 319 1130 261 q 1190 425 1190 378 l 1190 935 m 850 595 q 825 535 850 560 q 765 510 801 510 l 595 510 q 551 484 551 510 q 584 436 551 470 q 647 363 607 413 q 680 256 680 312 q 655 195 680 220 q 595 170 631 170 l 425 170 q 365 195 390 170 q 340 256 340 220 l 340 935 q 365 995 340 971 q 425 1020 390 1020 l 765 1020 q 825 995 800 1020 q 850 935 850 970 l 850 595 z "},"R":{"ha":1360,"x_min":0,"x_max":1190,"o":"m 1190 680 l 1190 935 q 1107 1107 1190 1025 q 935 1190 1025 1190 l 86 1190 q 25 1165 50 1190 q 0 1105 0 1141 l 0 86 q 25 25 0 50 q 86 0 50 0 l 256 0 q 341 125 341 0 q 340 170 341 141 q 339 215 339 199 q 425 340 339 340 l 935 0 l 1105 0 q 1156 9 1132 0 q 1190 42 1190 20 q 1103 175 1190 86 q 995 280 1087 190 q 970 340 970 304 q 1027 436 970 379 q 1132 539 1123 529 q 1190 680 1190 608 m 850 765 q 767 593 850 676 q 595 510 685 510 l 425 510 q 365 535 390 510 q 340 595 340 560 l 340 935 q 365 995 340 971 q 425 1020 390 1020 l 765 1020 q 825 995 800 1020 q 850 935 850 970 l 850 765 z "},"S":{"ha":1360,"x_min":0,"x_max":1190,"o":"m 256 1190 l 765 1190 q 937 1107 855 1190 q 1020 935 1020 1025 q 995 875 1020 900 q 935 850 971 850 l 765 850 q 693 893 712 850 q 667 976 680 935 q 595 1020 648 1020 l 425 1020 q 365 995 390 1020 q 340 935 340 971 l 340 765 q 365 705 340 730 q 425 680 390 680 l 935 680 q 1043 647 992 680 q 1190 424 1190 552 l 1190 256 q 1107 83 1190 166 q 935 0 1025 0 l 256 0 q 82 82 165 0 q 0 256 0 165 q 25 316 0 291 q 86 340 50 340 l 256 340 q 327 296 308 340 q 353 213 340 256 q 425 170 372 170 l 765 170 q 825 195 801 170 q 850 256 850 220 l 850 424 q 825 485 850 460 q 765 510 801 510 l 256 510 q 147 543 198 510 q 0 765 0 638 l 0 935 q 83 1107 0 1025 q 256 1190 166 1190 z "},"T":{"ha":1360,"x_min":170,"x_max":1190,"o":"m 170 1105 q 195 1165 170 1141 q 256 1190 220 1190 l 1105 1190 q 1165 1165 1140 1190 q 1190 1105 1190 1140 q 1064 1018 1190 1018 q 1020 1020 1049 1018 q 975 1021 990 1021 q 850 935 850 1021 l 850 86 q 825 25 850 50 q 765 0 801 0 l 595 0 q 535 25 560 0 q 510 86 510 50 l 510 935 q 385 1021 510 1021 q 340 1020 369 1021 q 295 1018 310 1018 q 170 1105 170 1018 z "},"U":{"ha":1360,"x_min":0,"x_max":1190,"o":"m 0 1105 q 25 1165 0 1141 q 86 1190 50 1190 l 256 1190 q 315 1165 290 1190 q 340 1105 340 1140 l 340 256 q 365 195 340 220 q 425 170 390 170 l 765 170 q 825 195 801 170 q 850 256 850 220 l 850 1105 q 875 1165 850 1141 q 935 1190 900 1190 l 1105 1190 q 1165 1165 1140 1190 q 1190 1105 1190 1140 l 1190 256 q 1107 83 1190 166 q 935 0 1025 0 l 256 0 q 82 82 165 0 q 0 256 0 165 l 0 1105 z "},"V":{"ha":1360,"x_min":0,"x_max":1190,"o":"m 0 1105 q 25 1165 0 1141 q 86 1190 50 1190 l 256 1190 q 315 1165 290 1190 q 340 1105 340 1140 l 340 765 q 373 657 340 708 q 595 510 468 510 q 816 657 722 510 q 850 765 850 708 l 850 1105 q 875 1165 850 1141 q 935 1190 900 1190 l 1105 1190 q 1165 1165 1140 1190 q 1190 1105 1190 1140 l 1190 595 q 1130 450 1190 510 l 740 60 q 595 0 680 0 q 450 60 510 0 l 60 450 q 0 595 0 510 l 0 1105 z "},"W":{"ha":1360,"x_min":0,"x_max":1190,"o":"m 935 1190 q 875 1165 900 1190 q 850 1105 850 1141 l 850 595 q 824 551 850 551 q 777 584 811 551 q 703 647 730 629 q 595 680 650 680 q 487 647 538 680 q 413 584 461 630 q 365 551 378 551 q 340 595 340 551 l 340 1105 q 315 1165 340 1140 q 256 1190 290 1190 l 86 1190 q 25 1165 50 1190 q 0 1105 0 1141 l 0 86 q 25 25 0 50 q 86 0 50 0 l 256 0 q 395 57 327 0 q 500 162 409 69 q 595 220 556 220 q 690 162 634 220 q 795 57 781 69 q 935 0 862 0 l 1105 0 q 1165 25 1141 0 q 1190 86 1190 50 l 1190 1105 q 1165 1165 1190 1140 q 1105 1190 1140 1190 l 935 1190 z "},"X":{"ha":1360,"x_min":0,"x_max":1190,"o":"m 1190 1105 q 1130 1184 1190 1169 q 1020 1190 1110 1190 q 874 1130 934 1190 l 655 910 q 595 885 631 885 q 534 910 558 885 l 316 1130 q 207 1184 272 1173 q 86 1190 178 1190 q 5 1130 20 1190 q 0 1020 0 1110 q 60 874 0 934 l 280 655 q 304 594 304 631 q 280 534 304 558 l 60 316 q 5 207 17 272 q 0 86 0 178 q 60 5 0 20 q 170 0 79 0 q 316 60 256 0 l 534 280 q 595 304 558 304 q 655 280 631 304 l 874 60 q 983 5 917 17 q 1105 0 1012 0 q 1184 60 1169 0 q 1190 170 1190 79 q 1130 316 1190 256 l 910 534 q 885 594 885 558 q 910 655 885 631 l 1130 874 q 1184 983 1173 917 q 1190 1105 1190 1012 z "},"Y":{"ha":1360,"x_min":170,"x_max":1190,"o":"m 170 1105 q 195 1165 170 1141 q 256 1190 220 1190 l 425 1190 q 485 1165 460 1190 q 510 1105 510 1140 l 510 765 q 535 705 510 730 q 595 680 560 680 l 765 680 q 825 705 801 680 q 850 765 850 730 l 850 1105 q 875 1165 850 1141 q 935 1190 900 1190 l 1105 1190 q 1165 1165 1140 1190 q 1190 1105 1190 1140 l 1190 765 q 1107 593 1190 676 q 935 510 1025 510 q 875 485 900 510 q 850 424 850 460 l 850 86 q 825 25 850 50 q 765 0 801 0 l 595 0 q 535 25 560 0 q 510 86 510 50 l 510 424 q 486 485 510 460 q 425 510 461 510 q 252 592 335 510 q 170 765 170 675 l 170 1105 z "},"Z":{"ha":1360,"x_min":0,"x_max":1190,"o":"m 0 1105 q 25 1165 0 1141 q 86 1190 50 1190 l 1105 1190 q 1184 1130 1169 1190 q 1190 1020 1190 1110 q 1130 874 1190 934 l 570 316 q 510 212 510 256 q 543 179 510 190 q 595 170 569 170 l 1105 170 q 1165 145 1140 170 q 1190 86 1190 120 q 1165 25 1190 50 q 1105 0 1141 0 l 86 0 q 5 60 20 0 q 0 170 0 79 q 60 316 0 256 l 620 874 q 680 977 680 934 q 647 1011 680 999 q 595 1020 622 1020 l 86 1020 q 25 1045 50 1020 q 0 1105 0 1069 z "},"[":{"ha":1360,"x_min":340,"x_max":850,"o":"m 340 1105 q 365 1165 340 1141 q 425 1190 390 1190 l 765 1190 q 825 1165 800 1190 q 850 1105 850 1140 q 806 1032 850 1052 q 723 1007 765 1020 q 680 935 680 988 l 680 256 q 723 183 680 202 q 806 157 765 170 q 850 86 850 138 q 825 25 850 50 q 765 0 801 0 l 425 0 q 365 25 390 0 q 340 86 340 50 l 340 1105 z "},"\\":{"ha":1360,"x_min":0,"x_max":1190,"o":"m 0 1105 q 25 1165 0 1141 q 86 1190 50 1190 q 230 1130 170 1190 l 1130 230 q 1190 86 1190 170 q 1165 25 1190 50 q 1105 0 1141 0 q 960 60 1020 0 l 60 960 q 0 1105 0 1020 z "},"]":{"ha":1360,"x_min":340,"x_max":850,"o":"m 340 1105 q 365 1165 340 1141 q 425 1190 390 1190 l 765 1190 q 825 1165 800 1190 q 850 1105 850 1140 l 850 86 q 825 25 850 50 q 765 0 801 0 l 425 0 q 365 25 390 0 q 340 86 340 50 q 383 157 340 138 q 466 183 425 170 q 510 256 510 202 l 510 935 q 466 1007 510 988 q 383 1032 425 1020 q 340 1105 340 1052 z "},"^":{"ha":1360,"x_min":340,"x_max":850,"o":"m 595 1190 q 423 1107 506 1190 q 340 935 340 1025 q 365 875 340 900 q 425 850 390 850 q 530 880 470 850 q 595 910 590 910 q 659 880 599 910 q 765 850 719 850 q 825 875 801 850 q 850 935 850 900 q 767 1107 850 1025 q 595 1190 685 1190 z "},"_":{"ha":1360,"x_min":0,"x_max":1190,"o":"m 0 86 q 25 146 0 121 q 86 170 50 170 l 1105 170 q 1165 145 1140 170 q 1190 86 1190 120 q 1165 25 1190 50 q 1105 0 1141 0 l 86 0 q 25 25 50 0 q 0 86 0 50 z "},"`":{"ha":1360,"x_min":510,"x_max":850,"o":"m 850 935 q 825 875 850 900 q 765 850 801 850 q 592 932 675 850 q 510 1105 510 1015 q 535 1165 510 1141 q 595 1190 560 1190 q 767 1107 685 1190 q 850 935 850 1025 z "},"a":{"ha":1360,"x_min":0,"x_max":1190,"o":"m 765 1190 l 425 1190 q 280 1130 340 1190 l 60 910 q 0 765 0 850 l 0 86 q 25 25 0 50 q 86 0 50 0 l 256 0 q 341 125 341 0 q 340 170 341 141 q 339 215 339 199 q 425 340 339 340 l 765 340 q 851 215 851 340 q 850 170 851 199 q 848 125 848 141 q 935 0 848 0 l 1105 0 q 1165 25 1141 0 q 1190 86 1190 50 l 1190 765 q 1130 910 1190 850 l 910 1130 q 765 1190 850 1190 m 850 595 q 825 535 850 560 q 765 510 801 510 l 425 510 q 365 535 390 510 q 340 595 340 560 l 340 765 q 423 937 340 855 q 595 1020 506 1020 q 767 937 685 1020 q 850 765 850 855 l 850 595 z "},"b":{"ha":1360,"x_min":0,"x_max":1190,"o":"m 1190 935 q 1107 1107 1190 1025 q 935 1190 1025 1190 l 86 1190 q 25 1165 50 1190 q 0 1105 0 1141 l 0 86 q 25 25 0 50 q 86 0 50 0 l 935 0 q 1107 83 1025 0 q 1190 256 1190 166 l 1190 424 q 1160 530 1190 470 q 1130 594 1130 590 q 1160 659 1130 599 q 1190 765 1190 719 l 1190 935 m 850 256 q 825 195 850 220 q 765 170 801 170 l 425 170 q 365 195 390 170 q 340 256 340 220 l 340 424 q 365 485 340 460 q 425 510 390 510 l 765 510 q 825 485 801 510 q 850 424 850 460 l 850 256 m 850 765 q 825 705 850 730 q 765 680 801 680 l 425 680 q 365 705 390 680 q 340 765 340 730 l 340 935 q 365 995 340 971 q 425 1020 390 1020 l 765 1020 q 825 995 800 1020 q 850 935 850 970 l 850 765 z "},"c":{"ha":1360,"x_min":0,"x_max":1190,"o":"m 425 1190 l 935 1190 q 1107 1107 1025 1190 q 1190 935 1190 1025 q 1165 875 1190 900 q 1105 850 1141 850 l 935 850 q 862 893 882 850 q 837 976 850 935 q 765 1020 818 1020 l 595 1020 q 423 937 506 1020 q 340 765 340 855 l 340 424 q 423 252 340 335 q 595 170 506 170 l 765 170 q 837 213 818 170 q 862 296 850 254 q 935 340 882 340 l 1105 340 q 1165 315 1140 340 q 1190 256 1190 290 q 1107 83 1190 166 q 935 0 1025 0 l 425 0 q 280 60 340 0 l 60 280 q 0 424 0 340 l 0 765 q 60 910 0 850 l 280 1130 q 425 1190 340 1190 z "},"d":{"ha":1360,"x_min":0,"x_max":1190,"o":"m 765 1190 l 86 1190 q 25 1165 50 1190 q 0 1104 0 1140 l 0 86 q 25 25 0 50 q 86 0 50 0 l 765 0 q 910 60 850 0 l 1130 280 q 1190 424 1190 340 l 1190 764 q 1130 910 1190 850 l 910 1130 q 765 1190 850 1190 m 850 424 q 767 252 850 335 q 595 170 685 170 l 425 170 q 365 195 390 170 q 340 256 340 220 l 340 934 q 365 995 340 970 q 425 1020 390 1020 l 595 1020 q 767 937 685 1020 q 850 764 850 854 l 850 424 z "},"e":{"ha":1360,"x_min":0,"x_max":1190,"o":"m 0 1104 q 25 1165 0 1140 q 86 1190 50 1190 l 1105 1190 q 1165 1165 1141 1190 q 1190 1104 1190 1140 q 1165 1045 1190 1069 q 1105 1020 1140 1020 l 425 1020 q 365 995 390 1020 q 340 934 340 970 l 340 765 q 365 705 340 730 q 425 680 390 680 l 935 680 q 995 655 970 680 q 1020 595 1020 630 q 995 535 1020 560 q 935 510 971 510 l 425 510 q 365 485 390 510 q 340 424 340 460 l 340 256 q 365 195 340 220 q 425 170 390 170 l 1105 170 q 1165 145 1140 170 q 1190 86 1190 120 q 1165 25 1190 50 q 1105 0 1141 0 l 86 0 q 25 25 50 0 q 0 86 0 50 l 0 1104 z "},"f":{"ha":1360,"x_min":0,"x_max":1190,"o":"m 0 1104 q 25 1165 0 1140 q 86 1190 50 1190 l 1105 1190 q 1165 1165 1141 1190 q 1190 1104 1190 1140 q 1165 1045 1190 1069 q 1105 1020 1140 1020 l 425 1020 q 365 995 390 1020 q 340 934 340 970 l 340 765 q 365 705 340 730 q 425 680 390 680 l 935 680 q 995 655 970 680 q 1020 595 1020 630 q 995 535 1020 560 q 935 510 971 510 l 425 510 q 365 485 390 510 q 340 424 340 460 l 340 86 q 316 25 340 50 q 256 0 291 0 l 86 0 q 25 25 50 0 q 0 86 0 50 l 0 1104 z "},"g":{"ha":1360,"x_min":0,"x_max":1190,"o":"m 0 764 l 0 424 q 60 280 0 340 l 280 60 q 425 0 340 0 l 1105 0 q 1165 25 1141 0 q 1190 86 1190 50 l 1190 595 q 1165 655 1190 630 q 1105 680 1140 680 l 765 680 q 705 655 730 680 q 680 595 680 631 q 723 523 680 542 q 806 497 765 510 q 850 424 850 478 l 850 256 q 825 195 850 220 q 765 170 801 170 l 595 170 q 423 252 506 170 q 340 424 340 335 l 340 764 q 487 986 340 892 q 595 1020 538 1020 l 1105 1020 q 1165 1045 1140 1020 q 1190 1104 1190 1069 q 1165 1165 1190 1140 q 1105 1190 1141 1190 l 425 1190 q 280 1130 340 1190 l 60 910 q 0 764 0 850 z "},"h":{"ha":1360,"x_min":0,"x_max":1190,"o":"m 935 1190 q 875 1165 900 1190 q 850 1104 850 1140 l 850 765 q 825 705 850 730 q 765 680 801 680 l 425 680 q 365 705 390 680 q 340 765 340 730 l 340 1104 q 316 1165 340 1140 q 256 1190 291 1190 l 86 1190 q 25 1165 50 1190 q 0 1104 0 1140 l 0 86 q 25 25 0 50 q 86 0 50 0 l 256 0 q 316 25 291 0 q 340 86 340 50 l 340 424 q 365 485 340 460 q 425 510 390 510 l 765 510 q 825 485 801 510 q 850 424 850 460 l 850 86 q 875 25 850 50 q 935 0 900 0 l 1105 0 q 1165 25 1141 0 q 1190 86 1190 50 l 1190 1104 q 1165 1165 1190 1140 q 1105 1190 1141 1190 l 935 1190 z "},"i":{"ha":1360,"x_min":170,"x_max":1190,"o":"m 170 1104 q 195 1165 170 1140 q 256 1190 220 1190 l 1105 1190 q 1165 1165 1141 1190 q 1190 1104 1190 1140 q 1064 1018 1190 1018 q 1020 1020 1049 1018 q 975 1021 990 1021 q 850 934 850 1021 l 850 256 q 975 169 850 169 q 1020 170 990 169 q 1064 171 1049 171 q 1190 86 1190 171 q 1165 25 1190 50 q 1105 0 1141 0 l 256 0 q 195 25 220 0 q 170 86 170 50 q 295 171 170 171 q 340 170 310 171 q 385 169 369 169 q 510 256 510 169 l 510 934 q 385 1021 510 1021 q 340 1020 369 1021 q 295 1018 310 1018 q 170 1104 170 1018 z "},"j":{"ha":1360,"x_min":0,"x_max":1190,"o":"m 935 1190 l 1105 1190 q 1165 1165 1141 1190 q 1190 1104 1190 1140 l 1190 256 q 1107 83 1190 166 q 935 0 1025 0 l 256 0 q 82 82 165 0 q 0 256 0 165 l 0 424 q 25 485 0 460 q 86 510 50 510 l 256 510 q 341 385 341 510 q 340 340 341 369 q 339 295 339 310 q 425 170 339 170 l 765 170 q 825 195 801 170 q 850 256 850 220 l 850 1104 q 875 1165 850 1140 q 935 1190 900 1190 z "},"k":{"ha":1360,"x_min":0,"x_max":1190,"o":"m 1190 1104 q 1165 1165 1190 1140 q 1105 1190 1141 1190 l 935 1190 q 790 1130 850 1190 l 400 740 q 365 721 381 721 q 340 765 340 721 l 340 1104 q 316 1165 340 1140 q 256 1190 291 1190 l 86 1190 q 25 1165 50 1190 q 0 1104 0 1140 l 0 86 q 25 25 0 50 q 86 0 50 0 l 256 0 q 341 125 341 0 q 340 170 341 141 q 339 215 339 199 q 425 340 339 340 l 935 0 l 1105 0 q 1165 25 1141 0 q 1190 86 1190 50 q 1130 230 1190 170 l 825 534 q 800 594 800 560 q 825 655 800 630 l 1130 960 q 1190 1104 1190 1020 z "},"l":{"ha":1360,"x_min":0,"x_max":1190,"o":"m 0 1104 q 25 1165 0 1140 q 86 1190 50 1190 l 256 1190 q 316 1165 291 1190 q 340 1104 340 1140 l 340 256 q 365 195 340 220 q 425 170 390 170 l 1105 170 q 1165 145 1140 170 q 1190 86 1190 120 q 1165 25 1190 50 q 1105 0 1141 0 l 86 0 q 25 25 50 0 q 0 86 0 50 l 0 1104 z "},"m":{"ha":1360,"x_min":0,"x_max":1190,"o":"m 935 1190 q 795 1132 862 1190 q 690 1027 781 1121 q 595 970 634 970 q 500 1027 556 970 q 395 1132 409 1121 q 256 1190 327 1190 l 86 1190 q 25 1165 50 1190 q 0 1104 0 1140 l 0 86 q 25 25 0 50 q 86 0 50 0 l 256 0 q 316 25 291 0 q 340 86 340 50 l 340 595 q 365 639 340 639 q 413 606 378 639 q 487 543 461 560 q 595 510 538 510 q 703 543 650 510 q 777 606 730 561 q 824 639 811 639 q 850 595 850 639 l 850 86 q 875 25 850 50 q 935 0 900 0 l 1105 0 q 1165 25 1141 0 q 1190 86 1190 50 l 1190 1104 q 1165 1165 1190 1140 q 1105 1190 1141 1190 l 935 1190 z "},"n":{"ha":1360,"x_min":0,"x_max":1190,"o":"m 824 636 q 790 655 809 636 l 316 1130 q 207 1184 272 1173 q 86 1190 178 1190 q 25 1165 50 1190 q 0 1105 0 1141 l 0 86 q 25 25 0 50 q 86 0 50 0 l 256 0 q 316 25 291 0 q 340 86 340 50 l 340 510 q 365 553 340 553 q 400 534 381 553 l 874 60 q 983 5 917 17 q 1105 0 1012 0 q 1165 25 1141 0 q 1190 86 1190 50 l 1190 1105 q 1165 1165 1190 1140 q 1105 1190 1140 1190 l 935 1190 q 875 1165 900 1190 q 850 1105 850 1141 l 850 680 q 824 636 850 636 z "},"o":{"ha":1360,"x_min":0,"x_max":1190,"o":"m 256 1190 q 83 1107 166 1190 q 0 935 0 1025 l 0 256 q 82 82 0 165 q 256 0 165 0 l 935 0 q 1107 83 1025 0 q 1190 256 1190 166 l 1190 935 q 1107 1107 1190 1025 q 935 1190 1025 1190 l 256 1190 m 850 256 q 825 195 850 220 q 765 170 801 170 l 425 170 q 365 195 390 170 q 340 256 340 220 l 340 935 q 365 995 340 971 q 425 1020 390 1020 l 765 1020 q 825 995 800 1020 q 850 935 850 970 l 850 256 z "},"p":{"ha":1360,"x_min":0,"x_max":1190,"o":"m 935 1190 l 86 1190 q 25 1165 50 1190 q 0 1105 0 1141 l 0 86 q 25 25 0 50 q 86 0 50 0 l 256 0 q 341 125 341 0 q 340 170 341 141 q 339 215 339 199 q 425 340 339 340 l 935 340 q 1107 423 1025 340 q 1190 595 1190 506 l 1190 935 q 1107 1107 1190 1025 q 935 1190 1025 1190 m 850 595 q 825 535 850 560 q 765 510 801 510 l 425 510 q 365 535 390 510 q 340 595 340 560 l 340 935 q 365 995 340 971 q 425 1020 390 1020 l 765 1020 q 825 995 800 1020 q 850 935 850 970 l 850 595 z "},"q":{"ha":1360,"x_min":0,"x_max":1190,"o":"m 1190 935 q 1107 1107 1190 1025 q 935 1190 1025 1190 l 256 1190 q 83 1107 166 1190 q 0 935 0 1025 l 0 256 q 82 82 0 165 q 256 0 165 0 l 765 0 q 870 30 811 0 q 935 60 929 60 q 999 30 940 60 q 1105 0 1058 0 q 1165 25 1141 0 q 1190 86 1190 50 q 1160 190 1190 132 q 1130 256 1130 249 q 1160 319 1130 261 q 1190 425 1190 378 l 1190 935 m 850 595 q 825 535 850 560 q 765 510 801 510 l 595 510 q 551 484 551 510 q 584 436 551 470 q 647 363 607 413 q 680 256 680 312 q 655 195 680 220 q 595 170 631 170 l 425 170 q 365 195 390 170 q 340 256 340 220 l 340 935 q 365 995 340 971 q 425 1020 390 1020 l 765 1020 q 825 995 800 1020 q 850 935 850 970 l 850 595 z "},"r":{"ha":1360,"x_min":0,"x_max":1190,"o":"m 1190 680 l 1190 935 q 1107 1107 1190 1025 q 935 1190 1025 1190 l 86 1190 q 25 1165 50 1190 q 0 1105 0 1141 l 0 86 q 25 25 0 50 q 86 0 50 0 l 256 0 q 341 125 341 0 q 340 170 341 141 q 339 215 339 199 q 425 340 339 340 l 935 0 l 1105 0 q 1156 9 1132 0 q 1190 42 1190 20 q 1103 175 1190 86 q 995 280 1087 190 q 970 340 970 304 q 1027 436 970 379 q 1132 539 1123 529 q 1190 680 1190 608 m 850 765 q 767 593 850 676 q 595 510 685 510 l 425 510 q 365 535 390 510 q 340 595 340 560 l 340 935 q 365 995 340 971 q 425 1020 390 1020 l 765 1020 q 825 995 800 1020 q 850 935 850 970 l 850 765 z "},"s":{"ha":1360,"x_min":0,"x_max":1190,"o":"m 256 1190 l 765 1190 q 937 1107 855 1190 q 1020 935 1020 1025 q 995 875 1020 900 q 935 850 971 850 l 765 850 q 693 893 712 850 q 667 976 680 935 q 595 1020 648 1020 l 425 1020 q 365 995 390 1020 q 340 935 340 971 l 340 765 q 365 705 340 730 q 425 680 390 680 l 935 680 q 1043 647 992 680 q 1190 424 1190 552 l 1190 256 q 1107 83 1190 166 q 935 0 1025 0 l 256 0 q 82 82 165 0 q 0 256 0 165 q 25 316 0 291 q 86 340 50 340 l 256 340 q 327 296 308 340 q 353 213 340 256 q 425 170 372 170 l 765 170 q 825 195 801 170 q 850 256 850 220 l 850 424 q 825 485 850 460 q 765 510 801 510 l 256 510 q 147 543 198 510 q 0 765 0 638 l 0 935 q 83 1107 0 1025 q 256 1190 166 1190 z "},"t":{"ha":1360,"x_min":170,"x_max":1190,"o":"m 170 1105 q 195 1165 170 1141 q 256 1190 220 1190 l 1105 1190 q 1165 1165 1140 1190 q 1190 1105 1190 1140 q 1064 1018 1190 1018 q 1020 1020 1049 1018 q 975 1021 990 1021 q 850 935 850 1021 l 850 86 q 825 25 850 50 q 765 0 801 0 l 595 0 q 535 25 560 0 q 510 86 510 50 l 510 935 q 385 1021 510 1021 q 340 1020 369 1021 q 295 1018 310 1018 q 170 1105 170 1018 z "},"u":{"ha":1360,"x_min":0,"x_max":1190,"o":"m 0 1105 q 25 1165 0 1141 q 86 1190 50 1190 l 256 1190 q 315 1165 290 1190 q 340 1105 340 1140 l 340 256 q 365 195 340 220 q 425 170 390 170 l 765 170 q 825 195 801 170 q 850 256 850 220 l 850 1105 q 875 1165 850 1141 q 935 1190 900 1190 l 1105 1190 q 1165 1165 1140 1190 q 1190 1105 1190 1140 l 1190 256 q 1107 83 1190 166 q 935 0 1025 0 l 256 0 q 82 82 165 0 q 0 256 0 165 l 0 1105 z "},"v":{"ha":1360,"x_min":0,"x_max":1190,"o":"m 0 1105 q 25 1165 0 1141 q 86 1190 50 1190 l 256 1190 q 315 1165 290 1190 q 340 1105 340 1140 l 340 765 q 373 657 340 708 q 595 510 468 510 q 816 657 722 510 q 850 765 850 708 l 850 1105 q 875 1165 850 1141 q 935 1190 900 1190 l 1105 1190 q 1165 1165 1140 1190 q 1190 1105 1190 1140 l 1190 595 q 1130 450 1190 510 l 740 60 q 595 0 680 0 q 450 60 510 0 l 60 450 q 0 595 0 510 l 0 1105 z "},"w":{"ha":1360,"x_min":0,"x_max":1190,"o":"m 935 1190 q 875 1165 900 1190 q 850 1105 850 1141 l 850 595 q 824 551 850 551 q 777 584 811 551 q 703 647 730 629 q 595 680 650 680 q 487 647 538 680 q 413 584 461 630 q 365 551 378 551 q 340 595 340 551 l 340 1105 q 315 1165 340 1140 q 256 1190 290 1190 l 86 1190 q 25 1165 50 1190 q 0 1105 0 1141 l 0 86 q 25 25 0 50 q 86 0 50 0 l 256 0 q 395 57 327 0 q 500 162 409 69 q 595 220 556 220 q 690 162 634 220 q 795 57 781 69 q 935 0 862 0 l 1105 0 q 1165 25 1141 0 q 1190 86 1190 50 l 1190 1105 q 1165 1165 1190 1140 q 1105 1190 1140 1190 l 935 1190 z "},"x":{"ha":1360,"x_min":0,"x_max":1190,"o":"m 1190 1105 q 1130 1184 1190 1169 q 1020 1190 1110 1190 q 874 1130 934 1190 l 655 910 q 595 885 631 885 q 534 910 558 885 l 316 1130 q 207 1184 272 1173 q 86 1190 178 1190 q 5 1130 20 1190 q 0 1020 0 1110 q 60 874 0 934 l 280 655 q 304 594 304 631 q 280 534 304 558 l 60 316 q 5 207 17 272 q 0 86 0 178 q 60 5 0 20 q 170 0 79 0 q 316 60 256 0 l 534 280 q 595 304 558 304 q 655 280 631 304 l 874 60 q 983 5 917 17 q 1105 0 1012 0 q 1184 60 1169 0 q 1190 170 1190 79 q 1130 316 1190 256 l 910 534 q 885 594 885 558 q 910 655 885 631 l 1130 874 q 1184 983 1173 917 q 1190 1105 1190 1012 z "},"y":{"ha":1360,"x_min":170,"x_max":1190,"o":"m 170 1105 q 195 1165 170 1141 q 256 1190 220 1190 l 425 1190 q 485 1165 460 1190 q 510 1105 510 1140 l 510 765 q 535 705 510 730 q 595 680 560 680 l 765 680 q 825 705 801 680 q 850 765 850 730 l 850 1105 q 875 1165 850 1141 q 935 1190 900 1190 l 1105 1190 q 1165 1165 1140 1190 q 1190 1105 1190 1140 l 1190 765 q 1107 593 1190 676 q 935 510 1025 510 q 875 485 900 510 q 850 424 850 460 l 850 86 q 825 25 850 50 q 765 0 801 0 l 595 0 q 535 25 560 0 q 510 86 510 50 l 510 424 q 486 485 510 460 q 425 510 461 510 q 252 592 335 510 q 170 765 170 675 l 170 1105 z "},"z":{"ha":1360,"x_min":0,"x_max":1190,"o":"m 0 1105 q 25 1165 0 1141 q 86 1190 50 1190 l 1105 1190 q 1184 1130 1169 1190 q 1190 1020 1190 1110 q 1130 874 1190 934 l 570 316 q 510 212 510 256 q 543 179 510 190 q 595 170 569 170 l 1105 170 q 1165 145 1140 170 q 1190 86 1190 120 q 1165 25 1190 50 q 1105 0 1141 0 l 86 0 q 5 60 20 0 q 0 170 0 79 q 60 316 0 256 l 620 874 q 680 977 680 934 q 647 1011 680 999 q 595 1020 622 1020 l 86 1020 q 25 1045 50 1020 q 0 1105 0 1069 z "},"{":{"ha":1360,"x_min":280,"x_max":850,"o":"m 850 1105 q 825 1165 850 1140 q 765 1190 800 1190 l 594 1190 q 450 1130 510 1190 q 364 1027 385 1066 q 337 898 337 976 q 339 832 337 877 q 340 765 340 787 q 310 659 340 718 q 280 595 280 601 q 310 530 280 589 q 340 425 340 471 q 339 358 340 402 q 337 291 337 314 q 364 164 337 213 q 450 60 385 125 q 594 0 510 0 l 765 0 q 825 25 801 0 q 850 86 850 50 l 680 256 l 680 425 q 650 530 680 471 q 620 595 620 589 q 650 659 620 601 q 680 765 680 718 l 680 935 q 723 1007 680 988 q 806 1032 764 1020 q 850 1105 850 1052 z "},"|":{"ha":1360,"x_min":510,"x_max":680,"o":"m 510 1105 q 535 1165 510 1140 q 594 1190 560 1190 q 655 1165 630 1190 q 680 1105 680 1141 l 680 86 q 655 25 680 50 q 594 0 630 0 q 534 25 558 0 q 510 86 510 50 l 510 1105 z "},"}":{"ha":1360,"x_min":340,"x_max":910,"o":"m 595 1190 l 425 1190 q 365 1165 390 1190 q 340 1105 340 1141 q 383 1032 340 1052 q 466 1007 424 1020 q 510 935 510 988 l 510 765 q 540 659 510 718 q 570 595 570 601 q 540 530 570 589 q 510 425 510 471 l 510 256 q 466 183 510 202 q 383 157 425 170 q 340 86 340 138 q 365 25 340 50 q 425 0 390 0 l 595 0 q 740 60 680 0 q 825 164 805 125 q 852 291 852 213 q 851 358 852 313 q 850 425 850 402 q 880 530 850 471 q 910 595 910 589 q 880 659 910 601 q 850 765 850 718 q 851 832 850 787 q 852 898 852 877 q 825 1027 852 976 q 740 1130 805 1066 q 595 1190 680 1190 z "},"~":{"ha":1360,"x_min":170,"x_max":1020,"o":"m 935 1190 q 809 1144 879 1190 q 722 1098 740 1098 q 634 1144 704 1098 q 510 1190 565 1190 l 425 1190 q 253 1107 336 1190 q 170 935 170 1025 q 195 875 170 900 q 256 850 220 850 q 380 896 310 850 q 468 942 450 942 q 555 896 486 942 q 680 850 625 850 l 765 850 q 937 933 855 850 q 1020 1105 1020 1016 q 995 1165 1020 1140 q 935 1190 970 1190 z "},"©":{"ha":1360,"x_min":0,"x_max":1190,"o":"m 340 765 q 365 825 340 801 q 425 850 390 850 l 765 850 q 825 825 800 850 q 850 765 850 800 q 724 678 850 678 q 680 680 709 678 q 635 681 650 681 q 510 595 510 681 q 635 509 510 509 q 680 510 650 509 q 724 511 709 511 q 850 425 850 511 q 825 365 850 390 q 765 340 801 340 l 425 340 q 365 365 390 340 q 340 425 340 390 l 340 765 m 935 1190 l 256 1190 q 83 1107 166 1190 q 0 935 0 1025 l 0 256 q 82 82 0 165 q 256 0 165 0 l 935 0 q 1107 83 1025 0 q 1190 256 1190 166 l 1190 935 q 1107 1107 1190 1025 q 935 1190 1025 1190 m 1020 256 q 995 195 1020 220 q 935 170 971 170 l 256 170 q 195 195 220 170 q 170 256 170 220 l 170 935 q 195 995 170 971 q 256 1020 220 1020 l 935 1020 q 995 995 970 1020 q 1020 935 1020 970 l 1020 256 z "},"®":{"ha":1360,"x_min":0,"x_max":1190,"o":"m 340 765 q 365 825 340 801 q 425 850 390 850 l 765 850 q 825 825 800 850 q 850 765 850 800 q 724 678 850 678 q 680 680 709 678 q 635 681 650 681 q 510 595 510 681 l 510 425 q 486 365 510 390 q 425 340 461 340 q 365 365 390 340 q 340 425 340 390 l 340 765 m 935 1190 l 256 1190 q 83 1107 166 1190 q 0 935 0 1025 l 0 256 q 82 82 0 165 q 256 0 165 0 l 935 0 q 1107 83 1025 0 q 1190 256 1190 166 l 1190 935 q 1107 1107 1190 1025 q 935 1190 1025 1190 m 1020 256 q 995 195 1020 220 q 935 170 971 170 l 256 170 q 195 195 220 170 q 170 256 170 220 l 170 935 q 195 995 170 971 q 256 1020 220 1020 l 935 1020 q 995 995 970 1020 q 1020 935 1020 970 l 1020 256 z "},"ß":{"ha":1360,"x_min":0,"x_max":1190,"o":"m 0 1105 q 25 1165 0 1140 q 84 1190 50 1190 l 1105 1190 q 1165 1165 1140 1190 q 1190 1105 1190 1140 l 1190 86 q 1165 25 1190 50 q 1105 0 1141 0 l 84 0 q 24 25 49 0 q 0 86 0 50 l 0 1105 z "},"å":{"ha":1360,"x_min":0,"x_max":1190,"o":"m 0 425 q 125 511 0 511 q 170 510 141 511 q 215 509 199 509 q 340 595 340 509 l 340 935 q 373 1044 340 993 q 595 1190 468 1190 q 816 1044 722 1190 q 850 935 850 993 l 850 595 q 975 509 850 509 q 1020 510 990 509 q 1064 511 1049 511 q 1190 425 1190 511 l 1190 86 q 1165 25 1190 50 q 1105 0 1141 0 l 84 0 q 24 25 49 0 q 0 86 0 50 l 0 425 z "},"ƒ":{"ha":1360,"x_min":170,"x_max":975,"o":"m 254 0 q 194 25 218 0 q 170 86 170 50 l 170 1105 q 195 1165 170 1140 q 254 1190 220 1190 q 415 1151 339 1190 l 944 888 q 975 850 975 873 q 944 811 975 827 l 415 548 q 362 496 385 533 q 340 425 340 460 l 340 86 q 315 25 340 50 q 254 0 290 0 z "},"π":{"ha":1360,"x_min":0,"x_max":1190,"o":"m 935 1190 l 254 1190 q 82 1107 165 1190 q 0 935 0 1025 l 0 256 q 82 83 0 166 q 254 0 165 0 l 935 0 q 1107 83 1025 0 q 1190 256 1190 166 l 1190 935 q 1107 1107 1190 1025 q 935 1190 1025 1190 m 1020 256 q 995 195 1020 220 q 935 170 971 170 l 594 170 q 534 195 558 170 q 510 256 510 220 q 635 341 510 341 q 680 340 650 341 q 724 339 709 339 q 850 425 850 339 l 850 765 q 825 825 850 800 q 765 850 800 850 l 425 850 q 365 825 390 850 q 340 765 340 801 l 340 256 q 315 195 340 220 q 254 170 290 170 q 194 195 218 170 q 170 256 170 220 l 170 935 q 195 995 170 970 q 254 1020 220 1020 l 935 1020 q 995 995 970 1020 q 1020 935 1020 970 l 1020 256 m 594 510 q 534 535 558 510 q 510 595 510 560 q 535 655 510 630 q 594 680 560 680 q 655 655 630 680 q 680 595 680 631 q 655 535 680 560 q 594 510 630 510 z "},"‘":{"ha":1360,"x_min":510,"x_max":850,"o":"m 850 1105 q 825 1165 850 1140 q 765 1190 800 1190 q 593 1107 676 1190 q 510 935 510 1025 l 510 595 q 535 535 510 560 q 595 510 560 510 l 765 510 q 825 535 801 510 q 850 595 850 560 l 850 765 q 806 837 850 818 q 723 862 765 850 q 680 935 680 882 q 723 1007 680 988 q 806 1032 765 1020 q 850 1105 850 1052 z "},"’":{"ha":1360,"x_min":340,"x_max":680,"o":"m 425 1190 q 365 1165 390 1190 q 340 1105 340 1141 l 340 935 l 510 765 q 466 693 510 712 q 383 667 425 680 q 340 595 340 648 q 365 535 340 560 q 425 510 390 510 q 597 593 515 510 q 680 765 680 676 l 680 1105 q 655 1165 680 1141 q 594 1190 630 1190 l 425 1190 z "},"“":{"ha":1360,"x_min":170,"x_max":1020,"o":"m 170 935 l 170 595 q 195 535 170 560 q 256 510 220 510 l 425 510 q 486 535 461 510 q 510 595 510 560 l 510 765 q 466 837 510 818 q 383 862 425 850 q 340 935 340 882 q 383 1007 340 988 q 466 1032 424 1020 q 510 1105 510 1052 q 485 1165 510 1140 q 425 1190 460 1190 q 253 1107 336 1190 q 170 935 170 1025 m 1020 1105 q 995 1165 1020 1140 q 935 1190 970 1190 q 763 1107 846 1190 q 680 935 680 1025 l 680 595 q 705 535 680 560 q 765 510 730 510 l 935 510 q 995 535 971 510 q 1020 595 1020 560 l 1020 765 q 976 837 1020 818 q 893 862 935 850 q 850 935 850 882 q 893 1007 850 988 q 976 1032 935 1020 q 1020 1105 1020 1052 z "},"”":{"ha":1360,"x_min":170,"x_max":1020,"o":"m 170 935 l 340 765 q 296 693 340 712 q 213 667 256 680 q 170 595 170 648 q 195 535 170 560 q 256 510 220 510 q 427 593 345 510 q 510 765 510 676 l 510 1105 q 485 1165 510 1140 q 425 1190 460 1190 l 256 1190 q 195 1165 220 1190 q 170 1105 170 1141 l 170 935 m 680 935 l 850 765 q 806 693 850 712 q 723 667 765 680 q 680 595 680 648 q 705 535 680 560 q 765 510 730 510 q 937 593 855 510 q 1020 765 1020 676 l 1020 1105 q 995 1165 1020 1140 q 935 1190 970 1190 l 765 1190 q 705 1165 730 1190 q 680 1105 680 1141 l 680 935 z "},"•":{"ha":1360,"x_min":340,"x_max":680,"o":"m 340 595 q 365 655 340 631 q 425 680 390 680 l 594 680 q 655 655 630 680 q 680 595 680 631 l 680 425 q 655 365 680 390 q 594 340 630 340 l 425 340 q 365 365 390 340 q 340 425 340 390 l 340 595 z "},"™":{"ha":1360,"x_min":0,"x_max":1190,"o":"m 0 1105 q 25 1165 0 1140 q 84 1190 50 1190 l 425 1190 q 485 1165 460 1190 q 510 1105 510 1140 q 466 1032 510 1052 q 383 1007 425 1020 q 340 935 340 988 l 340 595 q 316 535 340 560 q 256 510 291 510 q 195 535 220 510 q 170 595 170 560 l 170 935 q 126 1007 170 988 q 43 1032 86 1020 q 0 1105 0 1052 m 680 1105 q 705 1165 680 1141 q 765 1190 730 1190 q 837 1146 818 1190 l 862 1064 q 935 1020 882 1020 l 1105 1190 q 1165 1165 1140 1190 q 1190 1105 1190 1140 l 1190 595 q 1165 535 1190 560 q 1105 510 1141 510 q 1018 636 1018 510 q 1020 680 1018 652 q 1021 724 1021 709 q 935 850 1021 850 q 848 724 848 850 q 850 680 848 709 q 851 635 851 650 q 765 510 851 510 q 705 535 730 510 q 680 595 680 560 l 680 1105 z "}," ":{"ha":1360,"x_min":0,"x_max":0,"o":""}}}
